<?xml version="1.0" encoding="utf-8"?>
<!-- Generator: Adobe Illustrator 24.2.3, SVG Export Plug-In . SVG Version: 6.00 Build 0)  -->
<svg version="1.1" id="Layer_1" xmlns="http://www.w3.org/2000/svg" xmlns:xlink="http://www.w3.org/1999/xlink" x="0px" y="0px"
	 viewBox="0 0 200 34.29" style="enable-background:new 0 0 200 34.29;" xml:space="preserve">
<style type="text/css">
	.st0{fill:#707070;}
	.st1{fill:#557C38;}
	.st2{fill:#6CAD44;}
	.st3{fill:#C4D945;}
</style>
<g>
	<path id="Path_174-2" class="st0" d="M46.23,8.55c0,0.21-0.06,0.42-0.17,0.6c-0.08,0.16-0.2,0.31-0.35,0.42
		c-0.19-0.2-0.39-0.38-0.61-0.55c-0.32-0.24-0.67-0.45-1.04-0.62c-0.48-0.22-0.97-0.39-1.48-0.52c-0.63-0.16-1.28-0.23-1.94-0.22
		c-2.89,0-4.33,1.06-4.33,3.18c-0.01,0.44,0.07,0.87,0.25,1.27c0.16,0.35,0.41,0.65,0.71,0.88c0.35,0.26,0.73,0.46,1.14,0.61
		c0.49,0.18,0.99,0.32,1.49,0.42l2.58,0.55c1.26,0.2,2.44,0.75,3.41,1.59c0.78,0.81,1.18,1.91,1.11,3.03
		c0.01,0.68-0.12,1.35-0.37,1.98c-0.24,0.6-0.63,1.14-1.12,1.55c-0.56,0.46-1.21,0.81-1.9,1.02c-0.87,0.26-1.78,0.39-2.68,0.37
		c-0.73,0.01-1.46-0.06-2.18-0.2c-0.61-0.12-1.2-0.29-1.77-0.51c-0.48-0.18-0.93-0.4-1.37-0.66c-0.34-0.2-0.66-0.41-0.97-0.65
		l0.73-1.34c0.22,0.17,0.5,0.36,0.83,0.57c0.39,0.24,0.79,0.45,1.21,0.62c0.51,0.21,1.04,0.38,1.58,0.5c0.64,0.14,1.3,0.21,1.96,0.2
		c1.14,0.06,2.28-0.22,3.26-0.81c0.81-0.58,1.25-1.53,1.18-2.52c0.02-0.5-0.08-0.99-0.28-1.44c-0.18-0.37-0.44-0.68-0.77-0.92
		c-0.35-0.24-0.73-0.43-1.14-0.55c-0.43-0.13-0.89-0.25-1.36-0.35l-2.55-0.5c-0.61-0.11-1.21-0.29-1.78-0.54
		c-0.52-0.22-1.01-0.54-1.43-0.92c-0.41-0.38-0.74-0.83-0.96-1.34c-0.25-0.57-0.37-1.18-0.36-1.8c-0.01-0.62,0.1-1.24,0.3-1.83
		c0.21-0.58,0.55-1.1,1.01-1.52c0.53-0.47,1.15-0.83,1.82-1.05c0.89-0.28,1.81-0.41,2.74-0.39c0.7-0.01,1.39,0.05,2.08,0.16
		c0.51,0.09,1.01,0.22,1.49,0.39c0.34,0.12,0.67,0.27,0.97,0.46c0.19,0.12,0.37,0.25,0.54,0.39c0.17,0.14,0.31,0.31,0.42,0.5
		C46.2,8.24,46.23,8.39,46.23,8.55z"/>
	<path id="Path_175-2" class="st0" d="M50.31,18.62c0.08,1.12,0.58,2.17,1.39,2.96c0.84,0.72,1.92,1.1,3.03,1.04
		c0.64,0.02,1.28-0.1,1.87-0.36c0.41-0.18,0.8-0.39,1.18-0.63l0.63,1.19c-0.11,0.08-0.29,0.2-0.52,0.34
		c-0.27,0.16-0.55,0.3-0.84,0.41c-0.37,0.14-0.74,0.26-1.13,0.34C55.46,24,55,24.05,54.53,24.04c-0.77,0-1.53-0.13-2.24-0.41
		c-0.69-0.27-1.32-0.68-1.84-1.21c-0.55-0.56-0.97-1.23-1.24-1.96c-0.32-0.87-0.47-1.79-0.45-2.71c-0.01-0.93,0.14-1.85,0.43-2.72
		c0.26-0.78,0.68-1.49,1.21-2.11c0.51-0.58,1.14-1.05,1.85-1.37c0.74-0.33,1.54-0.49,2.35-0.48c0.64-0.01,1.28,0.08,1.89,0.29
		c0.5,0.17,0.97,0.44,1.35,0.81c0.36,0.34,0.64,0.77,0.81,1.23c0.18,0.49,0.28,1.01,0.27,1.53c0.01,0.52-0.09,1.03-0.29,1.51
		c-0.22,0.48-0.56,0.9-1,1.19c-0.57,0.39-1.21,0.66-1.88,0.8c-0.98,0.21-1.98,0.31-2.98,0.29c-0.46,0-0.88,0-1.27-0.01
		S50.73,18.65,50.31,18.62z M50.27,17.33c0.39,0.03,0.77,0.05,1.14,0.06c0.37,0.01,0.75,0.01,1.16,0.01
		c0.81,0.02,1.63-0.06,2.42-0.21c0.53-0.1,1.03-0.29,1.5-0.56c0.33-0.19,0.6-0.48,0.77-0.82c0.14-0.31,0.22-0.65,0.22-0.99
		c0.01-0.4-0.07-0.8-0.25-1.17c-0.16-0.3-0.39-0.57-0.67-0.76c-0.29-0.19-0.61-0.33-0.95-0.41c-0.36-0.08-0.72-0.12-1.09-0.12
		c-0.62-0.01-1.24,0.13-1.8,0.41c-0.51,0.27-0.96,0.65-1.31,1.11c-0.36,0.48-0.64,1.02-0.82,1.59
		C50.38,16.07,50.28,16.7,50.27,17.33z"/>
	<path id="Path_176-2" class="st0" d="M60.93,6.22C60.92,6,60.98,5.78,61.11,5.61c0.15-0.17,0.37-0.26,0.6-0.24
		c0.13,0,0.26,0.02,0.38,0.06c0.09,0.03,0.18,0.07,0.27,0.11v18.15h-1.43L60.93,6.22z"/>
	<path id="Path_177-2" class="st0" d="M65.14,6.22C65.13,6,65.19,5.78,65.32,5.61c0.15-0.17,0.37-0.26,0.6-0.24
		c0.13,0,0.26,0.02,0.38,0.06c0.09,0.03,0.18,0.07,0.27,0.11v18.15h-1.43L65.14,6.22z"/>
	<path id="Path_178-2" class="st0" d="M71.12,7.06c0.01,0.32-0.11,0.62-0.31,0.86c-0.18,0.23-0.46,0.36-0.75,0.36
		c-0.29,0-0.56-0.13-0.74-0.36c-0.2-0.24-0.31-0.55-0.3-0.86c-0.01-0.31,0.1-0.61,0.3-0.85c0.18-0.22,0.45-0.35,0.74-0.35
		c0.29,0,0.56,0.13,0.75,0.35C71.02,6.45,71.13,6.75,71.12,7.06z M69.37,12.26c-0.01-0.22,0.06-0.43,0.18-0.61
		c0.15-0.17,0.37-0.26,0.6-0.24c0.13,0,0.26,0.02,0.38,0.06c0.09,0.03,0.18,0.07,0.27,0.11V23.7h-1.43L69.37,12.26z"/>
	<path id="Path_179-2" class="st0" d="M82.08,23.69v-6.86c0.07-1.14-0.25-2.27-0.9-3.21c-0.67-0.79-1.68-1.22-2.72-1.14
		c-1.03-0.08-2.04,0.35-2.71,1.14c-0.64,0.94-0.96,2.07-0.89,3.21v6.86h-1.43v-7.36c-0.01-0.73,0.11-1.45,0.35-2.14
		c0.21-0.62,0.55-1.19,0.99-1.67c0.44-0.47,0.98-0.84,1.58-1.08c0.67-0.27,1.38-0.4,2.1-0.39c0.72-0.01,1.44,0.12,2.11,0.39
		c0.6,0.24,1.15,0.61,1.59,1.08c0.44,0.48,0.78,1.05,0.99,1.67c0.24,0.69,0.36,1.41,0.35,2.14v7.36L82.08,23.69z"/>
	<path id="Path_180-2" class="st0" d="M96.98,21.58c0.03,1.15-0.13,2.29-0.45,3.39c-0.25,0.84-0.68,1.62-1.27,2.27
		c-0.53,0.57-1.19,1.01-1.93,1.27c-0.78,0.27-1.59,0.41-2.41,0.4c-0.88,0.03-1.77-0.08-2.62-0.31c-0.48-0.14-0.95-0.32-1.41-0.51
		l0.39-1.34c0.09,0.03,0.23,0.1,0.42,0.19c0.24,0.11,0.49,0.19,0.75,0.26c0.3,0.08,0.65,0.16,1.04,0.22c0.42,0.07,0.85,0.1,1.28,0.1
		c0.55,0,1.09-0.07,1.62-0.19c0.57-0.13,1.1-0.39,1.55-0.77c0.52-0.46,0.92-1.03,1.17-1.67c0.35-0.93,0.5-1.91,0.46-2.9v-0.6
		c-0.4,0.8-1.01,1.48-1.76,1.96c-0.75,0.46-1.62,0.69-2.5,0.67c-0.83,0.01-1.65-0.16-2.4-0.5c-0.69-0.32-1.3-0.79-1.79-1.38
		c-0.5-0.61-0.88-1.31-1.11-2.06c-0.27-0.82-0.4-1.68-0.39-2.55c-0.01-0.86,0.14-1.71,0.42-2.52c0.26-0.75,0.66-1.45,1.18-2.06
		c0.5-0.58,1.11-1.06,1.81-1.39c0.73-0.35,1.52-0.52,2.33-0.51c0.69-0.01,1.37,0.12,2.01,0.36c0.61,0.23,1.17,0.58,1.65,1.03
		c0.49,0.47,0.9,1.03,1.19,1.64c0.33,0.69,0.56,1.43,0.67,2.19c0.03,0.23,0.05,0.5,0.08,0.81s0.03,0.66,0.03,1.06L96.98,21.58z
		 M87.15,17.55c-0.01,0.7,0.09,1.39,0.29,2.06c0.17,0.59,0.46,1.14,0.84,1.62c0.36,0.44,0.81,0.8,1.32,1.04
		c0.54,0.26,1.14,0.38,1.74,0.37c0.6,0.01,1.19-0.13,1.72-0.4c0.51-0.26,0.96-0.63,1.32-1.08c0.38-0.48,0.67-1.03,0.84-1.62
		c0.2-0.66,0.3-1.34,0.29-2.03c0.01-0.68-0.09-1.36-0.3-2.01c-0.18-0.58-0.47-1.12-0.84-1.59c-0.36-0.44-0.81-0.81-1.32-1.06
		c-0.53-0.26-1.12-0.39-1.71-0.39c-0.6-0.01-1.2,0.13-1.74,0.4c-0.51,0.26-0.96,0.63-1.32,1.08c-0.38,0.48-0.67,1.03-0.84,1.62
		C87.25,16.22,87.15,16.88,87.15,17.55L87.15,17.55z"/>
	<path id="Path_181-2" class="st0" d="M99.88,19.79c0.23,0.18,0.46,0.34,0.71,0.49c0.38,0.22,0.77,0.41,1.18,0.57
		c0.52,0.21,1.05,0.37,1.6,0.49c0.64,0.14,1.3,0.2,1.96,0.2c0.94,0.08,1.89-0.14,2.7-0.63c0.55-0.43,0.85-1.1,0.81-1.8
		c0.01-0.33-0.05-0.66-0.18-0.97c-0.12-0.27-0.31-0.5-0.54-0.68c-0.26-0.2-0.55-0.36-0.86-0.46c-0.38-0.13-0.77-0.23-1.16-0.3
		l-2.38-0.5c-0.6-0.11-1.19-0.29-1.75-0.52c-0.55-0.22-1.05-0.53-1.49-0.92c-0.44-0.39-0.79-0.87-1.04-1.4
		c-0.28-0.63-0.41-1.31-0.39-2c0-0.68,0.11-1.35,0.34-1.99c0.22-0.63,0.59-1.19,1.07-1.64c0.54-0.49,1.17-0.87,1.86-1.11
		c0.88-0.29,1.8-0.43,2.73-0.41c0.68-0.01,1.36,0.04,2.04,0.15c0.5,0.08,0.99,0.2,1.47,0.36c0.34,0.11,0.66,0.26,0.97,0.43
		c0.24,0.15,0.42,0.27,0.54,0.35c0.22,0.17,0.41,0.37,0.56,0.6c0.15,0.22,0.22,0.48,0.22,0.75c0,0.37-0.1,0.74-0.3,1.06
		c-0.15,0.26-0.34,0.49-0.56,0.68c-0.18-0.21-0.39-0.4-0.62-0.56c-0.32-0.23-0.67-0.43-1.04-0.58c-0.46-0.2-0.95-0.36-1.44-0.47
		c-0.59-0.14-1.19-0.21-1.8-0.2c-0.55-0.01-1.1,0.05-1.63,0.17c-0.38,0.09-0.74,0.25-1.05,0.48c-0.25,0.19-0.44,0.45-0.56,0.74
		c-0.12,0.31-0.18,0.65-0.17,0.98c-0.03,0.57,0.21,1.11,0.64,1.48c0.64,0.44,1.37,0.74,2.13,0.86l2.42,0.52
		c1.31,0.21,2.54,0.77,3.55,1.63c0.84,0.87,1.27,2.06,1.19,3.27c0.01,0.74-0.13,1.47-0.41,2.15c-0.27,0.63-0.68,1.2-1.2,1.65
		c-0.57,0.49-1.25,0.86-1.97,1.07c-0.88,0.26-1.8,0.39-2.72,0.37c-0.8,0.01-1.6-0.07-2.38-0.24c-0.66-0.14-1.3-0.33-1.93-0.57
		c-0.49-0.19-0.96-0.42-1.41-0.68c-0.37-0.23-0.65-0.41-0.82-0.55L99.88,19.79z"/>
	<path id="Path_182-2" class="st0" d="M115.01,5.62c0.41,0,0.8,0.18,1.06,0.5c0.29,0.34,0.45,0.77,0.43,1.22
		c0.01,0.45-0.14,0.88-0.43,1.22c-0.26,0.32-0.65,0.5-1.06,0.5c-0.41,0-0.8-0.18-1.06-0.5c-0.29-0.34-0.44-0.77-0.43-1.22
		c-0.01-0.45,0.14-0.88,0.43-1.22C114.21,5.8,114.6,5.62,115.01,5.62z M113.77,12.53c-0.03-0.37,0.09-0.74,0.35-1.01
		c0.27-0.22,0.62-0.33,0.97-0.31c0.24,0,0.48,0.03,0.71,0.11c0.22,0.08,0.36,0.13,0.43,0.16v12.21h-2.47L113.77,12.53z"/>
	<path id="Path_183-2" class="st0" d="M118.78,15.66c-0.01-0.71,0.11-1.42,0.37-2.09c0.22-0.56,0.57-1.07,1.01-1.49
		c0.43-0.4,0.94-0.71,1.5-0.91c0.6-0.21,1.24-0.32,1.88-0.31c0.84-0.01,1.66,0.18,2.4,0.57c0.71,0.39,1.3,0.98,1.69,1.69
		c0.38-0.71,0.96-1.3,1.67-1.69c0.72-0.39,1.54-0.59,2.36-0.57c0.63,0,1.26,0.1,1.86,0.3c0.56,0.19,1.07,0.49,1.49,0.89
		c0.44,0.42,0.78,0.93,1,1.49c0.26,0.67,0.38,1.38,0.37,2.09v8.05h-2.47v-7.09c0.08-0.87-0.16-1.74-0.67-2.45
		c-0.47-0.5-1.13-0.77-1.82-0.73c-0.71-0.01-1.38,0.29-1.85,0.82c-0.57,0.77-0.83,1.71-0.75,2.66v6.79h-2.47v-6.79
		c0.08-0.95-0.18-1.89-0.75-2.66c-0.47-0.53-1.14-0.83-1.85-0.82c-0.69-0.03-1.35,0.25-1.82,0.75c-0.53,0.71-0.77,1.58-0.69,2.46
		v7.06h-2.47L118.78,15.66z"/>
	<path id="Path_184-2" class="st0" d="M138.7,18.03c-0.02-1.04,0.13-2.08,0.43-3.07c0.25-0.82,0.66-1.58,1.21-2.24
		c0.51-0.6,1.16-1.07,1.88-1.38c0.77-0.32,1.61-0.48,2.45-0.47c0.79-0.01,1.56,0.16,2.27,0.5c0.69,0.33,1.3,0.79,1.81,1.37
		c0.53,0.61,0.94,1.32,1.2,2.09c0.29,0.85,0.44,1.74,0.43,2.63c0.01,0.9-0.13,1.8-0.42,2.65c-0.26,0.76-0.65,1.46-1.17,2.08
		c-0.48,0.57-1.08,1.03-1.75,1.35c-0.69,0.33-1.44,0.49-2.2,0.49c-0.76,0.01-1.52-0.17-2.19-0.55c-0.59-0.33-1.11-0.79-1.49-1.34
		v6.54h-2.46V18.03z M144.5,21.51c0.47,0,0.93-0.1,1.35-0.31c0.41-0.21,0.77-0.5,1.06-0.86c0.31-0.38,0.54-0.82,0.68-1.29
		c0.16-0.52,0.24-1.07,0.24-1.62c0-0.54-0.08-1.07-0.24-1.58c-0.15-0.46-0.38-0.89-0.68-1.27c-0.29-0.35-0.65-0.64-1.06-0.85
		c-0.42-0.21-0.88-0.32-1.35-0.31c-0.47,0-0.93,0.1-1.35,0.3c-0.41,0.2-0.77,0.48-1.06,0.82c-0.31,0.37-0.54,0.8-0.69,1.26
		c-0.17,0.53-0.26,1.08-0.25,1.63c0,0.55,0.08,1.1,0.25,1.62c0.15,0.47,0.38,0.9,0.68,1.29c0.28,0.36,0.64,0.65,1.05,0.86
		C143.55,21.41,144.02,21.51,144.5,21.51z"/>
	<path id="Path_185-2" class="st0" d="M152.47,6.69c-0.03-0.37,0.1-0.73,0.35-0.99c0.27-0.23,0.62-0.35,0.97-0.32
		c0.24,0,0.48,0.03,0.71,0.11c0.22,0.08,0.36,0.13,0.43,0.16v18.05h-2.47L152.47,6.69z"/>
	<path id="Path_186-2" class="st0" d="M158.81,5.62c0.41,0,0.8,0.18,1.06,0.5c0.29,0.34,0.45,0.77,0.43,1.22
		c0.01,0.45-0.14,0.88-0.43,1.22c-0.26,0.32-0.65,0.5-1.06,0.5c-0.41,0-0.8-0.18-1.06-0.5c-0.29-0.34-0.44-0.77-0.43-1.22
		c-0.01-0.45,0.14-0.88,0.43-1.22C158.01,5.8,158.4,5.62,158.81,5.62z M157.57,12.53c-0.03-0.37,0.09-0.74,0.35-1.01
		c0.27-0.22,0.62-0.33,0.97-0.31c0.24,0,0.48,0.03,0.71,0.11c0.22,0.08,0.36,0.13,0.43,0.16v12.21h-2.47L157.57,12.53z"/>
	<path id="Path_187-2" class="st0" d="M162.72,10.44c-0.02-0.8,0.11-1.6,0.38-2.36c0.22-0.59,0.57-1.13,1.03-1.57
		c0.44-0.4,0.96-0.7,1.53-0.87c0.61-0.19,1.25-0.28,1.89-0.27c0.96-0.06,1.92,0.1,2.81,0.46c0.53,0.2,0.89,0.69,0.91,1.26
		c0,0.27-0.07,0.53-0.21,0.76c-0.11,0.2-0.26,0.37-0.44,0.51c-0.15-0.12-0.31-0.21-0.49-0.29c-0.22-0.1-0.45-0.17-0.68-0.24
		c-0.25-0.07-0.51-0.12-0.77-0.16c-0.25-0.04-0.5-0.06-0.75-0.06c-0.75-0.04-1.48,0.22-2.04,0.72c-0.54,0.62-0.81,1.44-0.73,2.26
		v0.62h6.25c0.38-0.06,0.77,0.09,1.02,0.39c0.18,0.37,0.26,0.77,0.24,1.18v10.91h-2.44v-9.87h-5.06v9.87h-2.45L162.72,10.44z"/>
	<path id="Path_188-2" class="st0" d="M184.94,22.77c-0.12,0.08-0.3,0.2-0.54,0.35c-0.29,0.17-0.6,0.31-0.92,0.42
		c-0.42,0.15-0.84,0.26-1.28,0.35c-0.52,0.1-1.06,0.15-1.59,0.15c-0.77,0.01-1.54-0.14-2.26-0.42c-0.7-0.28-1.32-0.71-1.84-1.26
		c-0.55-0.59-0.97-1.28-1.24-2.04c-0.32-0.89-0.47-1.83-0.45-2.77c-0.01-0.93,0.14-1.85,0.44-2.72c0.27-0.78,0.69-1.5,1.23-2.11
		c0.52-0.58,1.15-1.05,1.86-1.37c0.74-0.33,1.54-0.49,2.35-0.48c0.68-0.01,1.35,0.1,1.99,0.33c0.54,0.2,1.04,0.51,1.46,0.9
		c0.39,0.36,0.7,0.81,0.9,1.3c0.2,0.51,0.3,1.05,0.3,1.59c0.01,0.54-0.09,1.08-0.28,1.58c-0.21,0.49-0.55,0.92-1,1.22
		c-0.59,0.39-1.24,0.66-1.93,0.79c-1.01,0.21-2.04,0.31-3.07,0.29c-0.29,0-0.56,0-0.81-0.01s-0.52-0.02-0.81-0.04
		c0.09,0.79,0.47,1.52,1.07,2.05c0.73,0.57,1.64,0.84,2.56,0.78c0.35,0,0.7-0.03,1.04-0.1c0.29-0.06,0.58-0.14,0.85-0.25
		c0.22-0.09,0.44-0.19,0.65-0.3c0.18-0.1,0.31-0.18,0.4-0.22L184.94,22.77z M177.34,16.88c0.33,0.02,0.65,0.02,0.95,0.02h0.91
		c0.65,0.01,1.29-0.04,1.93-0.17c0.41-0.08,0.79-0.23,1.15-0.45c0.24-0.15,0.43-0.36,0.54-0.62c0.09-0.23,0.13-0.47,0.13-0.72
		c0.04-0.55-0.21-1.09-0.66-1.42c-0.48-0.33-1.05-0.49-1.63-0.47c-0.49-0.01-0.97,0.1-1.41,0.32c-0.4,0.21-0.74,0.5-1.02,0.86
		c-0.28,0.37-0.5,0.79-0.64,1.23C177.43,15.92,177.35,16.4,177.34,16.88L177.34,16.88z"/>
	<path id="Path_189-2" class="st0" d="M195.88,6.69c-0.03-0.36,0.09-0.72,0.33-0.99c0.27-0.23,0.61-0.35,0.96-0.32
		c0.24,0,0.48,0.03,0.71,0.11c0.22,0.08,0.36,0.13,0.43,0.16v11.21c0.02,1.07-0.13,2.14-0.44,3.16c-0.25,0.82-0.67,1.58-1.22,2.24
		c-0.5,0.58-1.13,1.04-1.84,1.34c-0.73,0.3-1.52,0.46-2.32,0.45c-0.81,0.01-1.61-0.16-2.35-0.5c-0.7-0.32-1.33-0.79-1.85-1.37
		c-0.54-0.61-0.95-1.32-1.22-2.09c-0.3-0.85-0.45-1.74-0.44-2.64c-0.01-0.9,0.13-1.79,0.42-2.65c0.26-0.76,0.65-1.47,1.17-2.09
		c0.48-0.57,1.08-1.04,1.75-1.37c0.69-0.33,1.44-0.49,2.2-0.48c0.77-0.02,1.54,0.18,2.21,0.56c0.59,0.33,1.1,0.8,1.49,1.36
		L195.88,6.69z M195.88,17.45c0-0.54-0.08-1.08-0.25-1.59c-0.15-0.47-0.38-0.91-0.68-1.29c-0.28-0.36-0.64-0.65-1.05-0.86
		c-0.42-0.21-0.88-0.31-1.35-0.31c-0.47-0.01-0.94,0.1-1.36,0.31c-0.4,0.21-0.76,0.5-1.05,0.85c-0.31,0.38-0.54,0.81-0.68,1.28
		c-0.16,0.52-0.24,1.07-0.24,1.62c-0.01,0.54,0.08,1.08,0.24,1.6c0.14,0.46,0.38,0.89,0.68,1.27c0.29,0.35,0.64,0.64,1.05,0.85
		c0.42,0.21,0.89,0.32,1.36,0.31c0.47,0,0.93-0.1,1.35-0.3c0.41-0.19,0.76-0.47,1.05-0.82c0.3-0.38,0.54-0.81,0.68-1.27
		C195.8,18.56,195.88,18.01,195.88,17.45L195.88,17.45z"/>
	<path id="Path_190-2" class="st1" d="M15.27,2.69c0,0,9.44,1.07,9.33,11.07h-6.13c0,0,2.84-3.05,1.94-6.31
		C19.68,5.06,17.72,3.24,15.27,2.69z"/>
	<path id="Path_191-2" class="st2" d="M18.53,12.49c0.74-0.99,1.18-2.16,1.27-3.39c0.06-0.88-0.06-1.76-0.36-2.58
		C18.02,3,9.45,0.69,5.09,4.49c-1.2,1.1-2.04,2.53-2.41,4.11c0,0-1.24,6.36,12.21,7.06c0,0-6.37-1.59-6.42-3.25
		c-0.48-1.98,0.75-3.98,2.73-4.45c0.18-0.04,0.36-0.07,0.54-0.09C11.73,7.88,18.42,6.7,18.53,12.49z"/>
	<path id="Path_192-2" class="st3" d="M2.07,10.05c0,0,0.34,5.86,12.84,6.55c0,0,14.71,1.28,8.81,15.16c0,0,2.46-8.12-10.78-9.15
		C12.94,22.6-0.79,20.48,2.07,10.05z"/>
</g>
</svg>
